<svg id="layers" xmlns="http://www.w3.org/2000/svg" viewBox="2 0 203 100">
  <defs>
    <filter id="shadow" name="shadow">
      <feDropShadow dx="1" dy="1" stdDeviation="1"/>
    </filter>
  </defs>
  <g id="s12" filter="url(#shadow)">
    <path d="M205,100.0076H0V49.18c14.7807,0,26.2308-.3077,34.2706-.4387,11.3941-.1856,22.7961-.0587,34.1834-.4954A179.6127,179.6127,0,0,1,87.28,48.1634c5.3247.2848,10.73.2455,15.9356,1.4037a10.5555,10.5555,0,0,0,4.7359.2588c2.895-.58,3.6377-2.4431,6.5229-2.89,3.0729-.4759,3.7228.6444,5.367.2477,5.6384-1.3609,7.8353-16.9129,9.33-27.4954.473-3.3484,1.1672-8.9511,2.676-9.06,1.3213-.0957,2.0379,4.131,3.6441,4.1238,2.7532-.0123,3.777-11.5058,6.5213-11.604,2.6534-.095,4.6576,10.5445,7.0967,10.2614,1.174-.1363,1.2354-2.6625,2.3016-2.7812,2.7144-.3019,4.7159,15.8045,10.3573,16.495,2.3478.2874,3.3916-2.3319,5.37-1.63,3.06,1.0851,1.44,7.6611,6.0417,11.22a19.3372,19.3372,0,0,0,4.0279,2.0139c3.9859,1.7144,5.2259,1.4641,6.9048,2.877,2.0693,1.7416,1.0927,3.0892,2.973,4.891.9649.9247,2.3392,1.6684,7.975,2.2575A81.9745,81.9745,0,0,0,205,49.18Z" fill="#d73b48"/>
  </g>
  <g id="s11" filter="url(#shadow)">
    <path d="M205,100.0076H0v-47.95c22.9582,0,16.5691-.0677,21.6669-.0019,6.105.0788,13.1737.2387,20.8966.0019,4.7228-.1447,7.0814-.257,10.0309-.4444a121.2842,121.2842,0,0,1,12.314-.5146c18.5279.1481,22.9261,2.6906,30.5924-.7672,2.0953-.945,5.049-2.6153,9.2065-2.3975,5.6812.2976,7.22,3.6766,10.0695,3.2606,8.2863-1.21,9.7074-32.146,12.9467-32.0309,1.6747.06,2.3412,8.3655,3.9319,8.3434,2.2934-.0318,3.2783-17.3311,6.8089-17.55,1.9792-.1227,3.3061,5.2119,7.8639,5.85,1.1095.1553,1.3221-.12,2.2057.1918,3.3445,1.18,3.2345,6.161,4.987,6.4254,2.154.3249,3.7451-6.9853,5.9458-6.9049,3.3007.1206,2.5821,16.6713,10.07,19.5638,3.391,1.31,5.2941-1.4066,8.4394.2877,4.6688,2.5149,1.7991,9.4677,6.8089,13.522,2.23,1.8042,5.5174,2.147,12.0931,2.8325A64.5005,64.5005,0,0,0,205,52.0571Z" fill="#e95a54"/>
  </g>
  <g id="s10" filter="url(#shadow)">
    <path d="M205,100.0076H0V54.9341c22.133,0,24.2054-.1709,31.439-.1917,11.3038-.0326,14.4744.1561,28.0031.1917,21.9486.0579,15.9313-.4328,22.92-.1917,12.5962.4343,16.1614,1.4769,21.3859-1.2467,3.07-1.6007,5.3821-3.8078,8.9188-3.3566,4.4717.5706,5.5388,4.7065,7.768,4.4114,6.1043-.8079,6.2061-31.62,11.604-32.1267,2.2374-.21,3.6455,4.97,6.1377,4.6032,3.7683-.5544,3.9523-12.8985,6.5212-13.0425,2.7089-.1519,4.5154,13.4351,8.3434,13.522,2.5877.0587,3.8834-6.2333,6.2335-5.9458,2.2806.2789,1.6,6.2708,6.5212,10.549,2.2455,1.9523,2.8894,1.1413,5.0828,3.1648,2.9647,2.7351,2.3933,4.7752,5.4663,10.1654,2.1514,3.7737,4.036,7.0795,6.9049,7.3844,2.5429.27,3.1574-2.32,6.3295-2.3975,2.7525-.0672,3.6871,1.8061,7.4631,3.28A19.2414,19.2414,0,0,0,205,54.9341Z" fill="#ff9760"/>
  </g>
  <g id="s9" filter="url(#shadow)">
    <path d="M205,100.0076,0,99.925V57.7286c12.72,0,14.1211-.4017,18.4924-.3969,7.5965.0083,8.3012.2281,12.835.0079,8.1764-.397,9.1777-.27,10.6607-.2.8912.0424,1.8792.11,3.7081.1706,1.7537.0586,3.0538.0668,3.36.0737,2.3568.0524,6.4369.1671,15.5647.5229,16.4668.6419,19.4959.9184,23.8793-.959a22.571,22.571,0,0,1,8.4393-2.3017c3.6442-.1919,5.5711.6822,9.0147,1.3427,2.463.4724,10.4609,2.101,15.1523-.2877,9.2592-4.7145,6.9666-25.678,10.2615-25.7973,1.7472-.0634,2.9818,5.8108,5.1786,5.5622.255-.0289.7711-.1683,2.9729-3.6443,2.11-3.3307,2.2314-4.1425,3.2606-4.5073,1.7772-.63,2.78,1.3068,4.6992.8631,2.74-.6332,3.0219-5.1163,4.6032-5.0827,1.614.0342,1.2046,4.7015,4.6032,6.713,2.2033,1.304,4.0777.35,5.6582,2.2058,1.0435,1.2249.8138,2.33,1.918,2.7811,1.1535.471,2.0891-.4548,3.6359.14a3.9291,3.9291,0,0,1,1.3509.9149c3.1541,3.0017,5.6582,10.07,5.6582,10.07,1.5011,6.8154,3.5495,8.7082,5.2365,9.0726,1.7132.37,2.5652-.9649,5.4225-1.203,3.1876-.2655,5.0578,1.1446,8.0918,2.312A27.8366,27.8366,0,0,0,205,57.8112Z" fill="#f3bb63"/>
  </g>
  <g id="s8" filter="url(#shadow)">
    <path d="M205,100.0076H0V60.6882c8.8405,0,17.8621.06,20.3145.0959,5.2825.0764,9.18.0908,10.2614.0959,13.26.0631,19.1233.7216,31.4555.4795,11.8582-.2327,10.1865-.9151,18.2212-.7672,13.9758.2573,15.5793,2.2584,21.3858.1918,6.7616-2.4065,10.8321-7.6386,15.2483-5.7541,2.0388.87,2.87,2.6946,4.891,2.4935,2.5682-.2555,4.3053-3.5071,4.8909-4.6033,1.9908-3.7264,1.5051-6.9925,2.877-7.2884.9756-.21,1.534,1.3738,2.3975,1.2467,2.6152-.385,2.0609-15.588,3.6443-15.7277.969-.0856,2.1543,5.5212,3.1647,5.37.8391-.1253.4085-4.0922,2.2058-4.7951.9486-.3709,1.5178.5412,2.4934.2878,2.4531-.6374,2.3059-7.323,3.4524-7.3844,1.0207-.0547,1.3169,5.0643,3.9319,5.754a4.2206,4.2206,0,0,0,2.7811-.5754c2.57-1.1756,2.9631-3.1351,3.8361-2.9729,1.653.3072,1.3023,7.5385,3.74,8.1516a3.5416,3.5416,0,0,1,1.5344.4795c.6411.4378.7125.9226,1.2467,1.7262.3547.5335,1.3138,2.0173,2.4934,2.11,1.1567.0908,1.4813-1.0874,2.3016-1.0549,2.2056.0874,1.8528,8.3948,5.85,10.1655,2.3356,1.0346,3.8949-1.1641,6.2335,0,2.6929,1.34,2.0835,4.9815,4.0279,7.8639,1.6253,2.4094,11.4,4.6556,20.12,4.4114Z" fill="#f1cd65"/>
  </g>
  <g id="s7" filter="url(#shadow)">
    <path d="M205,100.0076H0V63.5652c14.1237,0,20.6907-.2225,23.9789.05a43.8054,43.8054,0,0,0,6.7082.0908c2.6858-.1695,4.113-.6092,5.8347-.7158a46.1272,46.1272,0,0,1,10.5491.6713c13.363,1.9225,24.4336-1.05,45.9365.3836,5.5827.3722,11.1914-.4962,16.7826-.2877,2.4523.0915,5.003.4185,7.2885-1.1508,3.1619-2.1709,3.3032-6.1245,5.2745-6.2335,1.9229-.1063,2.7705,3.6008,4.1238,3.4524,2.9675-.3253,2.8152-18.58,5.37-18.7966,1.1687-.0989,2.0808,3.6461,3.3564,3.4525,1.6109-.2446,1.6171-6.4376,2.8771-6.5213.9773-.0649,1.5066,3.6254,2.6852,3.6442,1.6959.0271,2.4813-7.6345,4.6033-7.672,1.33-.0236,1.8992,2.6292,2.9729,2.4934,1.7812-.2253,1.6311-7.7058,3.4525-7.96,1.1206-.1563,1.4094,2.6433,4.0278,3.5484,1.8467.6383,3.2242-.2286,4.4114.8631.3589.33.5232.676.959,2.11,1.1552,3.8,1.25,5.48,1.8221,5.5622.7512.1073,1.1559-2.712,2.3016-2.7811.8644-.0521,1.5914,1.4623,3.5484,5.6581,2.3663,5.0735,2.9526,6.5232,4.0278,6.6172,1.6778.1467,2.4048-3.1945,3.9319-3.0688,2.373.1953,1.7545,8.3571,6.0417,10.2614,2.3587,1.0475,3.9241-.81,6.3295.6713,2.04,1.2566,1.8013,3.1394,3.8361,4.6032,1.8419,1.3252,10.2655,1.3,11.968,1.0549Z" fill="#ffe465"/>
  </g>
  <g id="s6" filter="url(#shadow)">
    <path d="M205,100.0076H0V66.4423c10.0779,0,30.8936-.09,35.7546,0,13.3331.2469,15.9893.7736,24.2628.2877,2.7388-.1609,6.2439-.4415,11.6041-.48,6.0142-.0427,7.46.2691,11.1245.2876,15.9364.0809,18.089-5.666,27.8112-3.2606,4.5785,1.1328,7.4731,3.0266,10.07,1.3426,3.0315-1.9659,2.9636-7.1522,5.5623-7.48,1.47-.1855,2.0757,1.3994,3.1647,1.0549,2.458-.7777.5561-9.2277,3.836-10.7409,1.0916-.5037,1.5392.3231,2.7811-.0959,3.9291-1.3255,3.4842-11.026,4.987-11.0286,1.1843-.002,1.7384,4.9028,3.0687,4.8909,1.4683-.0131,2.1271-5.9986,3.932-6.0417,1.1051-.0264,1.6917,2.1976,2.6852,2.0139.9346-.1728.65-2.1843,2.3016-3.3566.8377-.5946,1.1847-.2714,2.3017-.9589,1.604-.9873,1.6165-2.102,2.2057-2.11,1.6918-.0226,1.5625,9.17,6.1376,10.9326.9745.3754,1.04-.0189,1.918.3836,4.0742,1.867,3.15,10.5674,4.891,10.7409.91.0907,1.3778-2.2637,2.5894-2.2057,1.3431.0643,1.3648,2.9866,3.74,4.1238,1.4367.6878,2.0245-.0962,3.0688.6712,1.6707,1.2279.8483,3.7361,2.3975,4.6033.8.4479,1.2477-.0937,2.3976,0,3.6612.2985,4.6535,6.2419,7.5761,6.2336,1.3316-.0038,1.7486-1.463,3.74-1.4385a4.9832,4.9832,0,0,1,2.15.5778A14.6312,14.6312,0,0,0,205,66.4423Z" fill="#cfdb5e"/>
  </g>
  <g id="s5" filter="url(#shadow)">
    <path d="M205,100.0076H0V69.3193c9.4174,0,14.3273-.0367,17.8116.2093a65.8249,65.8249,0,0,0,7.6594.1515c3.6268-.1417,3.3425-.436,6.5129-.5452,2.4306-.0837,3.1119.0715,11.2509.4721a27.1371,27.1371,0,0,0,3.4477.1623c3.5637.1,6.8132-.0513,18.8972-.0664,32.7249-.0407,41.6691,1.0267,46.2242-2.4934a12.3893,12.3893,0,0,1,7.48-2.5894c2.92.0553,3.4764,1.6975,5.1787,1.4386,4.9421-.7517,5.31-14.5193,9.1106-14.7688,1.96-.1286,3.1543,3.4286,4.6033,2.973,2.2008-.6922,1.233-9.4608,3.3564-9.8778.572-.1124.9644.4607,1.63.1917,1.1784-.4759.9923-2.6913,1.63-2.7811.7307-.1028,1.3765,2.7465,2.11,2.6853.9891-.0827.95-5.3608,2.3016-5.5623.6452-.0962.9519,1.062,1.7262,1.0549,1.64-.0149,2.1958-5.2312,3.5484-5.2745,1.24-.04,1.17,4.33,4.6032,7.1926,1.9639,1.6374,2.5971.7162,4.4114,2.2057,3.8284,3.143,2.08,8.1241,5.4664,9.8778,1.6.8286,2.5877.0258,4.0279,1.2467,1.5627,1.3247.8687,2.6676,2.3015,4.0278,1.81,1.7184,3.6245.2464,5.85,1.918,2.0736,1.5575,2.0986,4.0374,3.3565,4.0279.9535-.0073,1.1568-1.4336,2.2057-1.5345,1.3645-.1311,2.1992,2.1688,3.74,3.6443C191.7838,68.59,200.3119,69.76,205,69.3193Z" fill="#aecd7b"/>
  </g>
  <g id="s4" filter="url(#shadow)">
    <path d="M205,100.0076H0V72.1963c10.0745,0,17.4492-.0976,22.988-.3246,10.9749-.45,14.4106-1.0212,22.1648-.4426,4.6706.3485,6.7394.6476,12.0836.8631,4.9858.2011,5.3383-.1464,13.1383-.2877,3.86-.07,6.6749-.0373,8.834.0235,6.128.1725,6.0223.2766,7.711.1589,6.0562-.4221,6.84-2.6424,11.8381-3.4389,7.5719-1.2067,8.09,3.52,14.7723,2.1057,5.68-1.2025,9.2946-5.3893,13.5221-4.1237a4.9689,4.9689,0,0,0,3.2607.1918,5.4042,5.4042,0,0,0,2.7811-2.9729c2.9343-6.113,3.3057-12.07,4.6031-12.18.9779-.0827,1.5711,3.2325,2.5894,3.1647,1.6881-.1123,1.5443-9.321,4.0278-9.7818,1.6774-.3113,3.0968,3.6379,4.6992,3.2606,2.0838-.4907,1.6741-7.6378,3.3565-7.8639,1.0922-.1468,1.8419,2.7875,3.1648,2.6853,1.6969-.1312,2.1081-5.0611,3.3564-5.0828.1963-.0034.8546.119,2.0139,4.1238,1.5822,5.4645,1.349,8.5992,2.8771,9.1105,1,.3347,1.5305-.8637,2.5894-.5754,2.4948.6793,1.9376,7.9834,3.6441,8.2475,1.0524.1629,1.7881-2.534,2.8771-2.3975,1.7332.2172.8936,7.1542,3.9319,8.5352,2.0485.931,3.7583-1.6186,6.3295-.6714,1.9665.7245,1.4583,3.2055,4.0278,5.0828a8.7354,8.7354,0,0,0,3.1727,1.3564c5.1369,1.3523,12.2434,1.2853,14.6453,1.2329Z" fill="#c0df9e"/>
  </g>
  <g id="s3" filter="url(#shadow)">
    <path d="M205,100.0076H0V75.0734c8.8376,0,25.8129-.2065,33.4529-.48,7.647-.2732,8.7763-.47,13.4262-.48,5.1048-.01,8.1888.1481,16.4949.48,10.969.4376,9.2352.2671,10.645.3836a32.35,32.35,0,0,0,7.3843.1919c3.5355-.4192,3.3779-1.1785,6.09-1.21,2.9536-.0345,3.948.8565,7.8156.7307a17.5569,17.5569,0,0,0,3.0526-.294c3.0308-.7783,4.41-2.7937,8.1678-2.9667,5.4166-.2493,5.9265,3.7838,11.4122,3.3565.5806-.0452,6.457-.5947,9.4942-4.795,1.4642-2.025,1.64-3.9653,3.4524-4.6033,1.7649-.6211,2.6307.9977,4.22.5755,3.5309-.9382,3.1619-9.966,5.9458-10.3573,1.2534-.1762,1.84,1.5818,2.9729,1.3426,2.5783-.5442,2.08-10.1772,3.74-10.3573,1.0972-.119,1.9357,4.02,3.1647,3.9319,1.7754-.1271,2.3035-8.9286,3.6443-8.9188.9342.0069,1.3442,4.219,2.877,4.3156.7865.05,1.061-1.0355,1.7261-.959,1.441.1655.6006,5.5282,3.6443,7.672,1.1178.7873,1.4145.1965,2.6411.9753,2.8952,1.8379,1.6263,5.3715,4.1679,7.6558,2.0714,1.8617,3.4745.018,6.0417,1.918,3.0243,2.2383,2.6249,5.9422,5.5541,6.78a11.5932,11.5932,0,0,1,2.4386.5887,7.5935,7.5935,0,0,1,2.8441,2.2211c1.0749,1.2668,5.1575,2.5022,18.4893,2.3017Z" fill="#d8f4c2"/>
  </g>
  <g id="s2" filter="url(#shadow)">
    <path d="M205,100.0076H0V77.95c14.5366,0,36.4974-.2843,40.07-.3836,1.0714-.03,4.2162-.1226,8.4393,0,2.8986.0841,4.9631.2307,5.85.2877,7.0107.45,11.08-.1687,21.4819-.3836,5.1492-.1065,8.5679-.1771,13.426,0,11.3328.413,14.504,1.591,18.6049-.8632,3.32-1.9871,4.2828-4.58,7.0965-4.5073,3.2177.083,4.3131,4.9837,6.2337,4.6033,2.1977-.4354,1.7332-6.6217,4.5073-7.3844,1.7865-.4912,2.8433,1.8017,4.6991,1.3426,2.9787-.7368,2.9993-7.3377,5.0827-7.48,1.4406-.0985,2.1181,3.01,3.5484,2.8771,1.3832-.1282,2.2244-3.1714,3.0688-6.33,1.3435-5.0247,1.2825-7.8058,2.2057-7.96,1.3031-.2173,2.7165,5.1068,4.0279,4.891,1.5328-.2523,1.13-7.7776,2.877-8.0557.9981-.1589,1.7647,2.1965,2.9729,2.0139,1.3976-.2112,1.4331-3.523,2.5894-3.6442.9863-.1034,1.2654,2.2745,3.74,4.891,1.8815,1.9892,2.65,1.5976,3.6443,3.2606,1.2969,2.1689.4508,3.6059,1.7262,4.6032,1.4032,1.0973,2.9322-.2479,4.22.8631,1.3442,1.16.3434,3.2024,1.8221,4.4114.8551.6992,1.4883.2924,2.5893.6714,2.9149,1.003,1.686,5.559,4.5074,7.768,2.1973,1.72,4.1471-.1985,10.4531,1.9179.8473.2844,1.2372.461,1.83.688A34.5075,34.5075,0,0,0,205,77.95Z" fill="#d6eacd"/>
  </g>
  <g id="s1" filter="url(#shadow)">
    <path d="M205,100.0076H0v-19.18c11.6467,0,22.194-.23,31.9668-.2813,10.1993-.0533,17.4762-.06,23.2556.3772.6058.0458,2.3144.21,4.6291.2306,4.9213.0442,8.43-.6495,23.47-.71,18.048-.0728,18.0612.3534,21.9722-.5562,3.0255-.7037,5.4228-1.6034,9.675-1.7454,5.3883-.18,5.6363.9833,8.4578.5968,7.2909-.9986,8.667-11.4189,14.2707-11.3378,3.5685.0517,4.5932,4.2466,7.0967,3.74,4.8368-.9783,4.521-18.1769,7.1926-18.3171,1.9728-.1035,3.5854,9.1991,5.5623,9.0147,1.6183-.1509,1.4563-6.4706,3.2606-6.809,2.1-.3937,2.7676,9.3608,9.8778,16.2073,3.5425,3.4111,7.2086,4.7,12.3213,6.4985A57.4354,57.4354,0,0,0,205,80.8274Z" fill="#eaf9ea"/>
  </g>
  <g id="s0" filter="url(#shadow)">
    <path d="M205,100.0076H0V83.7044c25.6834,0,36.093-.2225,39.3578.2446.4008.0574,2.6466.3976,5.7229.6,1.6724.11,3.6157.1814,6.0061.1546,4.4674-.05,7.7381-.4347,9.89-.6159,22.8763-1.9267,24.8163,1.2594,39.607-1.4385,6.6337-1.21,9.2394-2.3974,14.7688-1.918,7.2157.6256,8.265,1.87,12.3712.7672,7.18-1.9286,8.7284-8.3682,13.6179-7.768,3.6045.4425,4.583,4.3576,7.0008,3.8361,4.165-.8985,3.77-14.0717,6.4254-14.2893,2.01-.1646,2.0069,7.404,8.1515,11.3163,2.5431,1.6192,3.7685,1.1027,7.8639,3.74,4.29,2.763,4.1737,2.9072,5.37,3.2606,2.8561.8433,3.909-1.22,7.5762-1.3426,3.4716-.116,4.7138,2.0636,8.4393,2.9729,2.7688.6759,11.2813.6207,12.8311.48Z" fill="#fff"/>
  </g>
</svg>
